<mxfile host="app.diagrams.net" modified="2023-11-13T14:29:52.643Z" agent="Mozilla/5.0 (Windows NT 10.0; Win64; x64) AppleWebKit/537.36 (KHTML, like Gecko) Chrome/119.0.0.0 Safari/537.36" etag="7il1TS22YiBUN_fXLSH_" version="22.1.0" type="google" pages="3">
  <diagram name="Use_case" id="tmcjMvVKgUL5vrdiGds9">
    <mxGraphModel dx="1214" dy="1685" grid="1" gridSize="10" guides="1" tooltips="1" connect="1" arrows="1" fold="1" page="1" pageScale="1" pageWidth="827" pageHeight="1169" background="#ffffff" math="0" shadow="0">
      <root>
        <mxCell id="0" />
        <mxCell id="1" parent="0" />
        <mxCell id="6NaXsvwwTcW_htYZskse-2" value="" style="rounded=0;whiteSpace=wrap;html=1;" vertex="1" parent="1">
          <mxGeometry x="15" y="-10" width="795" height="440" as="geometry" />
        </mxCell>
        <mxCell id="oDoj3BTultYlWaAyUDh8-1" value="Teacher/student" style="shape=umlActor;verticalLabelPosition=bottom;verticalAlign=top;html=1;outlineConnect=0;" parent="1" vertex="1">
          <mxGeometry x="60" y="140" width="30" height="60" as="geometry" />
        </mxCell>
        <mxCell id="oDoj3BTultYlWaAyUDh8-2" value="reply" style="ellipse;whiteSpace=wrap;html=1;" parent="1" vertex="1">
          <mxGeometry x="220" y="220" width="120" height="60" as="geometry" />
        </mxCell>
        <mxCell id="oDoj3BTultYlWaAyUDh8-3" value="solve question/interact" style="shape=umlFrame;whiteSpace=wrap;html=1;pointerEvents=0;width=186;height=30;" parent="1" vertex="1">
          <mxGeometry x="184" y="10" width="536" height="400" as="geometry" />
        </mxCell>
        <mxCell id="oDoj3BTultYlWaAyUDh8-4" value="post comment" style="ellipse;whiteSpace=wrap;html=1;" parent="1" vertex="1">
          <mxGeometry x="230" y="310" width="120" height="50" as="geometry" />
        </mxCell>
        <mxCell id="oDoj3BTultYlWaAyUDh8-5" value="" style="endArrow=none;html=1;rounded=0;exitX=1;exitY=0.3333333333333333;exitDx=0;exitDy=0;exitPerimeter=0;entryX=0;entryY=0.5;entryDx=0;entryDy=0;" parent="1" source="oDoj3BTultYlWaAyUDh8-1" target="oDoj3BTultYlWaAyUDh8-2" edge="1">
          <mxGeometry width="50" height="50" relative="1" as="geometry">
            <mxPoint x="100" y="130" as="sourcePoint" />
            <mxPoint x="150" y="80" as="targetPoint" />
          </mxGeometry>
        </mxCell>
        <mxCell id="oDoj3BTultYlWaAyUDh8-6" value="" style="endArrow=none;html=1;rounded=0;exitX=1;exitY=0.3333333333333333;exitDx=0;exitDy=0;exitPerimeter=0;entryX=0;entryY=0.5;entryDx=0;entryDy=0;" parent="1" source="oDoj3BTultYlWaAyUDh8-1" target="oDoj3BTultYlWaAyUDh8-4" edge="1">
          <mxGeometry width="50" height="50" relative="1" as="geometry">
            <mxPoint x="120" y="180" as="sourcePoint" />
            <mxPoint x="170" y="130" as="targetPoint" />
          </mxGeometry>
        </mxCell>
        <mxCell id="oDoj3BTultYlWaAyUDh8-8" value="&amp;lt;&amp;lt;include&amp;gt;&amp;gt;" style="html=1;verticalAlign=bottom;endArrow=open;dashed=1;endSize=8;curved=0;rounded=0;exitX=1;exitY=1;exitDx=0;exitDy=0;entryX=0;entryY=0.5;entryDx=0;entryDy=0;" parent="1" source="oDoj3BTultYlWaAyUDh8-11" target="oDoj3BTultYlWaAyUDh8-10" edge="1">
          <mxGeometry relative="1" as="geometry">
            <mxPoint x="430" y="120" as="sourcePoint" />
            <mxPoint x="350" y="120" as="targetPoint" />
          </mxGeometry>
        </mxCell>
        <mxCell id="oDoj3BTultYlWaAyUDh8-9" value="&amp;lt;&amp;lt;include&amp;gt;&amp;gt;" style="html=1;verticalAlign=bottom;endArrow=open;dashed=1;endSize=8;curved=0;rounded=0;exitX=1;exitY=0.5;exitDx=0;exitDy=0;entryX=0.047;entryY=0.696;entryDx=0;entryDy=0;entryPerimeter=0;" parent="1" source="oDoj3BTultYlWaAyUDh8-2" target="oDoj3BTultYlWaAyUDh8-10" edge="1">
          <mxGeometry relative="1" as="geometry">
            <mxPoint x="440" y="159.5" as="sourcePoint" />
            <mxPoint x="360" y="159.5" as="targetPoint" />
          </mxGeometry>
        </mxCell>
        <mxCell id="oDoj3BTultYlWaAyUDh8-10" value="login" style="ellipse;whiteSpace=wrap;html=1;" parent="1" vertex="1">
          <mxGeometry x="414" y="160" width="120" height="60" as="geometry" />
        </mxCell>
        <mxCell id="oDoj3BTultYlWaAyUDh8-11" value="view all comments and replies" style="ellipse;whiteSpace=wrap;html=1;" parent="1" vertex="1">
          <mxGeometry x="220" y="70" width="120" height="60" as="geometry" />
        </mxCell>
        <mxCell id="oDoj3BTultYlWaAyUDh8-12" value="" style="endArrow=none;html=1;rounded=0;exitX=1;exitY=0.3333333333333333;exitDx=0;exitDy=0;exitPerimeter=0;entryX=0.003;entryY=0.65;entryDx=0;entryDy=0;entryPerimeter=0;" parent="1" source="oDoj3BTultYlWaAyUDh8-1" target="oDoj3BTultYlWaAyUDh8-11" edge="1">
          <mxGeometry width="50" height="50" relative="1" as="geometry">
            <mxPoint x="100" y="120" as="sourcePoint" />
            <mxPoint x="150" y="70" as="targetPoint" />
          </mxGeometry>
        </mxCell>
        <mxCell id="oDoj3BTultYlWaAyUDh8-13" value="&amp;lt;&amp;lt;include&amp;gt;&amp;gt;" style="html=1;verticalAlign=bottom;endArrow=open;dashed=1;endSize=8;curved=0;rounded=0;exitX=1;exitY=0.5;exitDx=0;exitDy=0;entryX=0;entryY=1;entryDx=0;entryDy=0;" parent="1" source="oDoj3BTultYlWaAyUDh8-4" target="oDoj3BTultYlWaAyUDh8-10" edge="1">
          <mxGeometry relative="1" as="geometry">
            <mxPoint x="410" y="200" as="sourcePoint" />
            <mxPoint x="526" y="181" as="targetPoint" />
          </mxGeometry>
        </mxCell>
        <mxCell id="oDoj3BTultYlWaAyUDh8-14" value="&amp;lt;&amp;lt;extend&amp;gt;&amp;gt;" style="html=1;verticalAlign=bottom;endArrow=open;dashed=1;endSize=8;curved=0;rounded=0;exitX=0.5;exitY=0;exitDx=0;exitDy=0;entryX=0.5;entryY=1;entryDx=0;entryDy=0;" parent="1" source="oDoj3BTultYlWaAyUDh8-2" target="oDoj3BTultYlWaAyUDh8-11" edge="1">
          <mxGeometry relative="1" as="geometry">
            <mxPoint x="480" y="220" as="sourcePoint" />
            <mxPoint x="596" y="201" as="targetPoint" />
          </mxGeometry>
        </mxCell>
        <mxCell id="oDoj3BTultYlWaAyUDh8-15" value="post text" style="ellipse;whiteSpace=wrap;html=1;" parent="1" vertex="1">
          <mxGeometry x="420" y="290" width="120" height="45" as="geometry" />
        </mxCell>
        <mxCell id="oDoj3BTultYlWaAyUDh8-16" value="import file" style="ellipse;whiteSpace=wrap;html=1;" parent="1" vertex="1">
          <mxGeometry x="420" y="350" width="120" height="40" as="geometry" />
        </mxCell>
        <mxCell id="oDoj3BTultYlWaAyUDh8-17" value="" style="endArrow=block;html=1;rounded=0;endFill=1;exitX=0;exitY=0.5;exitDx=0;exitDy=0;entryX=1;entryY=0.5;entryDx=0;entryDy=0;" parent="1" source="oDoj3BTultYlWaAyUDh8-15" target="oDoj3BTultYlWaAyUDh8-4" edge="1">
          <mxGeometry width="50" height="50" relative="1" as="geometry">
            <mxPoint x="270" y="380" as="sourcePoint" />
            <mxPoint x="320" y="330" as="targetPoint" />
          </mxGeometry>
        </mxCell>
        <mxCell id="oDoj3BTultYlWaAyUDh8-18" value="" style="endArrow=block;html=1;rounded=0;endFill=1;exitX=0;exitY=0.5;exitDx=0;exitDy=0;entryX=0.964;entryY=0.707;entryDx=0;entryDy=0;entryPerimeter=0;" parent="1" source="oDoj3BTultYlWaAyUDh8-16" target="oDoj3BTultYlWaAyUDh8-4" edge="1">
          <mxGeometry width="50" height="50" relative="1" as="geometry">
            <mxPoint x="380" y="320" as="sourcePoint" />
            <mxPoint x="270" y="337" as="targetPoint" />
          </mxGeometry>
        </mxCell>
        <mxCell id="oDoj3BTultYlWaAyUDh8-19" value="delete comment" style="ellipse;whiteSpace=wrap;html=1;" parent="1" vertex="1">
          <mxGeometry x="414" y="70" width="120" height="60" as="geometry" />
        </mxCell>
        <mxCell id="oDoj3BTultYlWaAyUDh8-22" value="confirm delete" style="ellipse;whiteSpace=wrap;html=1;" parent="1" vertex="1">
          <mxGeometry x="600" y="70" width="120" height="60" as="geometry" />
        </mxCell>
        <mxCell id="oDoj3BTultYlWaAyUDh8-23" value="&amp;lt;&amp;lt;extend&amp;gt;&amp;gt;" style="html=1;verticalAlign=bottom;endArrow=open;dashed=1;endSize=8;curved=0;rounded=0;exitX=0;exitY=0.5;exitDx=0;exitDy=0;entryX=1;entryY=0.5;entryDx=0;entryDy=0;" parent="1" source="oDoj3BTultYlWaAyUDh8-19" target="oDoj3BTultYlWaAyUDh8-11" edge="1">
          <mxGeometry relative="1" as="geometry">
            <mxPoint x="370" y="90" as="sourcePoint" />
            <mxPoint x="370" as="targetPoint" />
          </mxGeometry>
        </mxCell>
        <mxCell id="oDoj3BTultYlWaAyUDh8-24" value="&amp;lt;&amp;lt;include&amp;gt;&amp;gt;" style="html=1;verticalAlign=bottom;endArrow=open;dashed=1;endSize=8;curved=0;rounded=0;exitX=1;exitY=0.5;exitDx=0;exitDy=0;entryX=0;entryY=0.5;entryDx=0;entryDy=0;" parent="1" source="oDoj3BTultYlWaAyUDh8-19" target="oDoj3BTultYlWaAyUDh8-22" edge="1">
          <mxGeometry relative="1" as="geometry">
            <mxPoint x="570" y="70" as="sourcePoint" />
            <mxPoint x="610" y="160" as="targetPoint" />
          </mxGeometry>
        </mxCell>
      </root>
    </mxGraphModel>
  </diagram>
  <diagram id="_Zhtr7d30MeCwXppFq3A" name="Class-diagram">
    <mxGraphModel grid="1" page="1" gridSize="10" guides="1" tooltips="1" connect="1" arrows="1" fold="1" pageScale="1" pageWidth="827" pageHeight="1169" math="0" shadow="0">
      <root>
        <mxCell id="0" />
        <mxCell id="1" parent="0" />
        <mxCell id="KUVo5j8_O02ATBCvlUlL-1" value="" style="rounded=0;whiteSpace=wrap;html=1;" vertex="1" parent="1">
          <mxGeometry x="-810" y="-50" width="2120" height="1670" as="geometry" />
        </mxCell>
        <mxCell id="VNLyaeQR8Mx1TpH5JarL-14" value="&amp;lt;&amp;lt;interface&amp;gt;&amp;gt;&lt;br style=&quot;border-color: var(--border-color);&quot;&gt;TeacherCommentRepository&amp;lt;TeacherComment,Interger&amp;gt;" style="swimlane;fontStyle=1;align=center;verticalAlign=top;childLayout=stackLayout;horizontal=1;startSize=50;horizontalStack=0;resizeParent=1;resizeParentMax=0;resizeLast=0;collapsible=1;marginBottom=0;whiteSpace=wrap;html=1;" vertex="1" parent="1">
          <mxGeometry x="-190" y="1290" width="330" height="80" as="geometry" />
        </mxCell>
        <mxCell id="VNLyaeQR8Mx1TpH5JarL-18" value="&amp;lt;&amp;lt;interface&amp;gt;&amp;gt;&lt;br style=&quot;border-color: var(--border-color);&quot;&gt;JpaRepository" style="swimlane;fontStyle=1;align=center;verticalAlign=top;childLayout=stackLayout;horizontal=1;startSize=40;horizontalStack=0;resizeParent=1;resizeParentMax=0;resizeLast=0;collapsible=1;marginBottom=0;whiteSpace=wrap;html=1;" vertex="1" parent="1">
          <mxGeometry x="70" y="1480" width="160" height="70" as="geometry" />
        </mxCell>
        <mxCell id="VNLyaeQR8Mx1TpH5JarL-6" value="CommentServiceImpl" style="swimlane;fontStyle=1;align=center;verticalAlign=top;childLayout=stackLayout;horizontal=1;startSize=26;horizontalStack=0;resizeParent=1;resizeParentMax=0;resizeLast=0;collapsible=1;marginBottom=0;whiteSpace=wrap;html=1;" vertex="1" parent="1">
          <mxGeometry x="-50" y="900" width="420" height="280" as="geometry" />
        </mxCell>
        <mxCell id="VNLyaeQR8Mx1TpH5JarL-7" value="- teacherCommentRepository: TeacherCommentRepository&lt;br&gt;&lt;br&gt;- studentCommentRepository: StudentCommentRepository" style="text;strokeColor=none;fillColor=none;align=left;verticalAlign=top;spacingLeft=4;spacingRight=4;overflow=hidden;rotatable=0;points=[[0,0.5],[1,0.5]];portConstraint=eastwest;whiteSpace=wrap;html=1;" vertex="1" parent="VNLyaeQR8Mx1TpH5JarL-6">
          <mxGeometry y="26" width="420" height="54" as="geometry" />
        </mxCell>
        <mxCell id="VNLyaeQR8Mx1TpH5JarL-8" value="" style="line;strokeWidth=1;fillColor=none;align=left;verticalAlign=middle;spacingTop=-1;spacingLeft=3;spacingRight=3;rotatable=0;labelPosition=right;points=[];portConstraint=eastwest;strokeColor=inherit;" vertex="1" parent="VNLyaeQR8Mx1TpH5JarL-6">
          <mxGeometry y="80" width="420" height="8" as="geometry" />
        </mxCell>
        <mxCell id="VNLyaeQR8Mx1TpH5JarL-9" value="+ findAllComment(): List&amp;lt;TeacherComment&amp;gt;&lt;br&gt;&lt;br&gt;+ findAllComment(): List&amp;lt;StudentComment&amp;gt;&lt;br&gt;&lt;br style=&quot;border-color: var(--border-color);&quot;&gt;+ createTeacherComment(TeacherComment teacherComment): void&lt;br&gt;&lt;br style=&quot;border-color: var(--border-color);&quot;&gt;+ deleteTeacherCommentById(idTeacherComment): void&lt;br&gt;&lt;br&gt;+ createStudentComment(StudentComment studentComment): void&lt;br style=&quot;border-color: var(--border-color);&quot;&gt;&lt;br style=&quot;border-color: var(--border-color);&quot;&gt;+deleteStudentCommentById(idStudentComment): void" style="text;strokeColor=none;fillColor=none;align=left;verticalAlign=top;spacingLeft=4;spacingRight=4;overflow=hidden;rotatable=0;points=[[0,0.5],[1,0.5]];portConstraint=eastwest;whiteSpace=wrap;html=1;" vertex="1" parent="VNLyaeQR8Mx1TpH5JarL-6">
          <mxGeometry y="88" width="420" height="192" as="geometry" />
        </mxCell>
        <mxCell id="VNLyaeQR8Mx1TpH5JarL-26" value="TeacherComment" style="swimlane;fontStyle=1;align=center;verticalAlign=top;childLayout=stackLayout;horizontal=1;startSize=26;horizontalStack=0;resizeParent=1;resizeParentMax=0;resizeLast=0;collapsible=1;marginBottom=0;whiteSpace=wrap;html=1;" vertex="1" parent="1">
          <mxGeometry x="560" y="700" width="160" height="510" as="geometry" />
        </mxCell>
        <mxCell id="VNLyaeQR8Mx1TpH5JarL-27" value="- id: interger&lt;br&gt;&lt;br&gt;- idTeacher: interger&lt;br&gt;&lt;br style=&quot;border-color: var(--border-color);&quot;&gt;- content: String&lt;br&gt;&lt;br style=&quot;border-color: var(--border-color);&quot;&gt;- date: date" style="text;strokeColor=none;fillColor=none;align=left;verticalAlign=top;spacingLeft=4;spacingRight=4;overflow=hidden;rotatable=0;points=[[0,0.5],[1,0.5]];portConstraint=eastwest;whiteSpace=wrap;html=1;" vertex="1" parent="VNLyaeQR8Mx1TpH5JarL-26">
          <mxGeometry y="26" width="160" height="134" as="geometry" />
        </mxCell>
        <mxCell id="VNLyaeQR8Mx1TpH5JarL-28" value="" style="line;strokeWidth=1;fillColor=none;align=left;verticalAlign=middle;spacingTop=-1;spacingLeft=3;spacingRight=3;rotatable=0;labelPosition=right;points=[];portConstraint=eastwest;strokeColor=inherit;" vertex="1" parent="VNLyaeQR8Mx1TpH5JarL-26">
          <mxGeometry y="160" width="160" height="8" as="geometry" />
        </mxCell>
        <mxCell id="VNLyaeQR8Mx1TpH5JarL-29" value="+ getId(): interger&lt;br&gt;&lt;br&gt;+ getIdTeacher(): interger&lt;br&gt;&lt;br&gt;+ getContent(): String&lt;br&gt;&lt;br&gt;+ getDate(): date&lt;br&gt;&lt;br&gt;+ setId(): void&lt;br&gt;&lt;br style=&quot;border-color: var(--border-color);&quot;&gt;+ setIdTeacher(): void&lt;br&gt;&lt;br style=&quot;border-color: var(--border-color);&quot;&gt;+ setContent(): void&lt;br&gt;&lt;br style=&quot;border-color: var(--border-color);&quot;&gt;+ setDate(): void" style="text;strokeColor=none;fillColor=none;align=left;verticalAlign=top;spacingLeft=4;spacingRight=4;overflow=hidden;rotatable=0;points=[[0,0.5],[1,0.5]];portConstraint=eastwest;whiteSpace=wrap;html=1;" vertex="1" parent="VNLyaeQR8Mx1TpH5JarL-26">
          <mxGeometry y="168" width="160" height="342" as="geometry" />
        </mxCell>
        <mxCell id="VNLyaeQR8Mx1TpH5JarL-30" value="Teacher" style="swimlane;fontStyle=1;align=center;verticalAlign=top;childLayout=stackLayout;horizontal=1;startSize=26;horizontalStack=0;resizeParent=1;resizeParentMax=0;resizeLast=0;collapsible=1;marginBottom=0;whiteSpace=wrap;html=1;" vertex="1" parent="1">
          <mxGeometry x="940" y="470" width="190" height="770" as="geometry" />
        </mxCell>
        <mxCell id="VNLyaeQR8Mx1TpH5JarL-31" value="- id: interger&lt;br&gt;&lt;br&gt;- name: String&lt;br&gt;&lt;br&gt;- code: interger&lt;br&gt;&lt;br&gt;- email: String&lt;br&gt;&lt;br&gt;- phoneNumber: String&lt;br&gt;&lt;br&gt;- address: String&lt;br&gt;&lt;br&gt;- dateOfBirth: date&lt;br&gt;&lt;br&gt;- gender: interger" style="text;strokeColor=none;fillColor=none;align=left;verticalAlign=top;spacingLeft=4;spacingRight=4;overflow=hidden;rotatable=0;points=[[0,0.5],[1,0.5]];portConstraint=eastwest;whiteSpace=wrap;html=1;" vertex="1" parent="VNLyaeQR8Mx1TpH5JarL-30">
          <mxGeometry y="26" width="190" height="254" as="geometry" />
        </mxCell>
        <mxCell id="VNLyaeQR8Mx1TpH5JarL-32" value="" style="line;strokeWidth=1;fillColor=none;align=left;verticalAlign=middle;spacingTop=-1;spacingLeft=3;spacingRight=3;rotatable=0;labelPosition=right;points=[];portConstraint=eastwest;strokeColor=inherit;" vertex="1" parent="VNLyaeQR8Mx1TpH5JarL-30">
          <mxGeometry y="280" width="190" height="8" as="geometry" />
        </mxCell>
        <mxCell id="VNLyaeQR8Mx1TpH5JarL-33" value="+ getId(): interger&lt;br&gt;&lt;br&gt;+ getName(): String&lt;br&gt;&lt;br&gt;+ getCode(): interger&lt;br&gt;&lt;br&gt;+ getEmail(): String&lt;br&gt;&lt;br&gt;+ getPhoneNumber(): String&lt;br&gt;&lt;br&gt;+ getAddress(): String&lt;br&gt;&lt;br&gt;+ getDateOfBirth(): date&lt;br&gt;&lt;br&gt;+ getGender(): interger&lt;br&gt;&lt;br&gt;+ setId(): void&lt;br&gt;&lt;br style=&quot;border-color: var(--border-color);&quot;&gt;+ setName(): void&lt;br&gt;&lt;br style=&quot;border-color: var(--border-color);&quot;&gt;+ setCode(): void&lt;br&gt;&lt;br style=&quot;border-color: var(--border-color);&quot;&gt;+ setEmail(): void&lt;br&gt;&lt;br style=&quot;border-color: var(--border-color);&quot;&gt;+ setPhoneNumber(): void&lt;br&gt;&lt;br style=&quot;border-color: var(--border-color);&quot;&gt;+ setAddress(): void&lt;br&gt;&lt;br style=&quot;border-color: var(--border-color);&quot;&gt;+ setDateOfBirth(): void&lt;br&gt;&lt;br style=&quot;border-color: var(--border-color);&quot;&gt;+ setGender(): void" style="text;strokeColor=none;fillColor=none;align=left;verticalAlign=top;spacingLeft=4;spacingRight=4;overflow=hidden;rotatable=0;points=[[0,0.5],[1,0.5]];portConstraint=eastwest;whiteSpace=wrap;html=1;" vertex="1" parent="VNLyaeQR8Mx1TpH5JarL-30">
          <mxGeometry y="288" width="190" height="482" as="geometry" />
        </mxCell>
        <mxCell id="VNLyaeQR8Mx1TpH5JarL-37" value="" style="endArrow=diamondThin;endFill=0;endSize=24;html=1;rounded=0;entryX=-0.006;entryY=0.1;entryDx=0;entryDy=0;entryPerimeter=0;" edge="1" parent="1" target="VNLyaeQR8Mx1TpH5JarL-33">
          <mxGeometry width="160" relative="1" as="geometry">
            <mxPoint x="720" y="806" as="sourcePoint" />
            <mxPoint x="770" y="810" as="targetPoint" />
          </mxGeometry>
        </mxCell>
        <mxCell id="VNLyaeQR8Mx1TpH5JarL-40" value="" style="endArrow=block;dashed=1;endFill=0;endSize=12;html=1;rounded=0;exitX=0.5;exitY=0;exitDx=0;exitDy=0;" edge="1" parent="1" source="VNLyaeQR8Mx1TpH5JarL-6">
          <mxGeometry width="160" relative="1" as="geometry">
            <mxPoint x="147" y="796" as="sourcePoint" />
            <mxPoint x="160" y="800" as="targetPoint" />
          </mxGeometry>
        </mxCell>
        <mxCell id="VNLyaeQR8Mx1TpH5JarL-41" value="owns" style="text;html=1;align=center;verticalAlign=middle;resizable=0;points=[];autosize=1;strokeColor=none;fillColor=none;" vertex="1" parent="1">
          <mxGeometry x="100" y="460" width="50" height="30" as="geometry" />
        </mxCell>
        <mxCell id="VNLyaeQR8Mx1TpH5JarL-42" value="" style="endArrow=diamondThin;endFill=1;endSize=24;html=1;rounded=0;exitX=0.5;exitY=0;exitDx=0;exitDy=0;entryX=0.479;entryY=1.007;entryDx=0;entryDy=0;entryPerimeter=0;" edge="1" parent="1" source="VNLyaeQR8Mx1TpH5JarL-14" target="VNLyaeQR8Mx1TpH5JarL-9">
          <mxGeometry width="160" relative="1" as="geometry">
            <mxPoint x="160" y="1130" as="sourcePoint" />
            <mxPoint x="150" y="1080" as="targetPoint" />
          </mxGeometry>
        </mxCell>
        <mxCell id="VNLyaeQR8Mx1TpH5JarL-43" value="owns" style="text;html=1;align=center;verticalAlign=middle;resizable=0;points=[];autosize=1;strokeColor=none;fillColor=none;" vertex="1" parent="1">
          <mxGeometry y="1200" width="50" height="30" as="geometry" />
        </mxCell>
        <mxCell id="VNLyaeQR8Mx1TpH5JarL-44" value="" style="html=1;verticalAlign=bottom;endArrow=block;curved=0;rounded=0;entryX=0.5;entryY=0;entryDx=0;entryDy=0;exitX=0.5;exitY=1;exitDx=0;exitDy=0;" edge="1" parent="1" source="VNLyaeQR8Mx1TpH5JarL-14" target="VNLyaeQR8Mx1TpH5JarL-18">
          <mxGeometry width="80" relative="1" as="geometry">
            <mxPoint x="150" y="1280" as="sourcePoint" />
            <mxPoint x="220" y="1370" as="targetPoint" />
          </mxGeometry>
        </mxCell>
        <mxCell id="VNLyaeQR8Mx1TpH5JarL-45" value="is" style="text;html=1;align=center;verticalAlign=middle;resizable=0;points=[];autosize=1;strokeColor=none;fillColor=none;" vertex="1" parent="1">
          <mxGeometry x="60" y="1400" width="30" height="30" as="geometry" />
        </mxCell>
        <mxCell id="VNLyaeQR8Mx1TpH5JarL-46" value="realizes" style="text;html=1;align=center;verticalAlign=middle;resizable=0;points=[];autosize=1;strokeColor=none;fillColor=none;" vertex="1" parent="1">
          <mxGeometry x="100" y="828" width="60" height="30" as="geometry" />
        </mxCell>
        <mxCell id="VNLyaeQR8Mx1TpH5JarL-47" value="Use" style="endArrow=open;endSize=12;dashed=1;html=1;rounded=0;exitX=1.012;exitY=0.734;exitDx=0;exitDy=0;entryX=0.018;entryY=0.108;entryDx=0;entryDy=0;entryPerimeter=0;exitPerimeter=0;" edge="1" parent="1" target="VNLyaeQR8Mx1TpH5JarL-27">
          <mxGeometry width="160" relative="1" as="geometry">
            <mxPoint x="385.15999999999985" y="741.48" as="sourcePoint" />
            <mxPoint x="453" y="709" as="targetPoint" />
          </mxGeometry>
        </mxCell>
        <mxCell id="VNLyaeQR8Mx1TpH5JarL-48" value="Use" style="endArrow=open;endSize=12;dashed=1;html=1;rounded=0;exitX=1;exitY=0.5;exitDx=0;exitDy=0;entryX=0.013;entryY=0.253;entryDx=0;entryDy=0;entryPerimeter=0;" edge="1" parent="1" source="VNLyaeQR8Mx1TpH5JarL-7" target="VNLyaeQR8Mx1TpH5JarL-29">
          <mxGeometry width="160" relative="1" as="geometry">
            <mxPoint x="340" y="960" as="sourcePoint" />
            <mxPoint x="473" y="959" as="targetPoint" />
          </mxGeometry>
        </mxCell>
        <mxCell id="VNLyaeQR8Mx1TpH5JarL-49" value="Use" style="endArrow=open;endSize=12;dashed=1;html=1;rounded=0;entryX=0.007;entryY=0.916;entryDx=0;entryDy=0;entryPerimeter=0;exitX=1;exitY=0.5;exitDx=0;exitDy=0;" edge="1" parent="1" source="LjxoUFQkhtFaeM3uUEXd-1" target="VNLyaeQR8Mx1TpH5JarL-29">
          <mxGeometry width="160" relative="1" as="geometry">
            <mxPoint x="630" y="1360" as="sourcePoint" />
            <mxPoint x="513" y="1189" as="targetPoint" />
          </mxGeometry>
        </mxCell>
        <mxCell id="VNLyaeQR8Mx1TpH5JarL-50" value="has" style="text;html=1;align=center;verticalAlign=middle;resizable=0;points=[];autosize=1;strokeColor=none;fillColor=none;" vertex="1" parent="1">
          <mxGeometry x="810" y="780" width="40" height="30" as="geometry" />
        </mxCell>
        <mxCell id="VNLyaeQR8Mx1TpH5JarL-83" value="has" style="text;html=1;align=center;verticalAlign=middle;resizable=0;points=[];autosize=1;strokeColor=none;fillColor=none;" vertex="1" parent="1">
          <mxGeometry x="-520" y="790" width="40" height="30" as="geometry" />
        </mxCell>
        <mxCell id="V4sBRRPawYf2jss6N-xr-1" value="StudentComment" style="swimlane;fontStyle=1;align=center;verticalAlign=top;childLayout=stackLayout;horizontal=1;startSize=26;horizontalStack=0;resizeParent=1;resizeParentMax=0;resizeLast=0;collapsible=1;marginBottom=0;whiteSpace=wrap;html=1;" vertex="1" parent="1">
          <mxGeometry x="-420" y="700" width="160" height="510" as="geometry" />
        </mxCell>
        <mxCell id="V4sBRRPawYf2jss6N-xr-2" value="- id: interger&lt;br&gt;&lt;br&gt;- idStudent: interger&lt;br&gt;&lt;br style=&quot;border-color: var(--border-color);&quot;&gt;- content: String&lt;br&gt;&lt;br style=&quot;border-color: var(--border-color);&quot;&gt;- date: date" style="text;strokeColor=none;fillColor=none;align=left;verticalAlign=top;spacingLeft=4;spacingRight=4;overflow=hidden;rotatable=0;points=[[0,0.5],[1,0.5]];portConstraint=eastwest;whiteSpace=wrap;html=1;" vertex="1" parent="V4sBRRPawYf2jss6N-xr-1">
          <mxGeometry y="26" width="160" height="134" as="geometry" />
        </mxCell>
        <mxCell id="V4sBRRPawYf2jss6N-xr-3" value="" style="line;strokeWidth=1;fillColor=none;align=left;verticalAlign=middle;spacingTop=-1;spacingLeft=3;spacingRight=3;rotatable=0;labelPosition=right;points=[];portConstraint=eastwest;strokeColor=inherit;" vertex="1" parent="V4sBRRPawYf2jss6N-xr-1">
          <mxGeometry y="160" width="160" height="8" as="geometry" />
        </mxCell>
        <mxCell id="V4sBRRPawYf2jss6N-xr-4" value="+ getId(): interger&lt;br&gt;&lt;br&gt;+ getIdStudent(): interger&lt;br&gt;&lt;br&gt;+ getContent(): String&lt;br&gt;&lt;br&gt;+ getDate(): date&lt;br&gt;&lt;br&gt;+ setId(): void&lt;br&gt;&lt;br style=&quot;border-color: var(--border-color);&quot;&gt;+ setIdStudent(): void&lt;br&gt;&lt;br style=&quot;border-color: var(--border-color);&quot;&gt;+ setContent(): void&lt;br&gt;&lt;br style=&quot;border-color: var(--border-color);&quot;&gt;+ setDate(): void" style="text;strokeColor=none;fillColor=none;align=left;verticalAlign=top;spacingLeft=4;spacingRight=4;overflow=hidden;rotatable=0;points=[[0,0.5],[1,0.5]];portConstraint=eastwest;whiteSpace=wrap;html=1;" vertex="1" parent="V4sBRRPawYf2jss6N-xr-1">
          <mxGeometry y="168" width="160" height="342" as="geometry" />
        </mxCell>
        <mxCell id="V4sBRRPawYf2jss6N-xr-5" value="Student" style="swimlane;fontStyle=1;align=center;verticalAlign=top;childLayout=stackLayout;horizontal=1;startSize=26;horizontalStack=0;resizeParent=1;resizeParentMax=0;resizeLast=0;collapsible=1;marginBottom=0;whiteSpace=wrap;html=1;" vertex="1" parent="1">
          <mxGeometry x="-770" y="480" width="190" height="1120" as="geometry" />
        </mxCell>
        <mxCell id="V4sBRRPawYf2jss6N-xr-6" value="- id: interger&lt;br&gt;&lt;br&gt;- name: String&lt;br&gt;&lt;br&gt;- code: interger&lt;br&gt;&lt;br&gt;- email: String&lt;br&gt;&lt;br&gt;- phoneNumber: String&lt;br&gt;&lt;br&gt;- address: String&lt;br&gt;&lt;br&gt;- dateOfBirth: date&lt;br&gt;&lt;br&gt;- gender: interger&lt;br&gt;&lt;br&gt;- flag: interger&lt;br&gt;&lt;br&gt;- idAccount: interger&lt;br&gt;&lt;br&gt;- idTeam: interger&lt;br&gt;&lt;br&gt;- idClass: interger" style="text;strokeColor=none;fillColor=none;align=left;verticalAlign=top;spacingLeft=4;spacingRight=4;overflow=hidden;rotatable=0;points=[[0,0.5],[1,0.5]];portConstraint=eastwest;whiteSpace=wrap;html=1;" vertex="1" parent="V4sBRRPawYf2jss6N-xr-5">
          <mxGeometry y="26" width="190" height="394" as="geometry" />
        </mxCell>
        <mxCell id="V4sBRRPawYf2jss6N-xr-7" value="" style="line;strokeWidth=1;fillColor=none;align=left;verticalAlign=middle;spacingTop=-1;spacingLeft=3;spacingRight=3;rotatable=0;labelPosition=right;points=[];portConstraint=eastwest;strokeColor=inherit;" vertex="1" parent="V4sBRRPawYf2jss6N-xr-5">
          <mxGeometry y="420" width="190" height="8" as="geometry" />
        </mxCell>
        <mxCell id="V4sBRRPawYf2jss6N-xr-8" value="+ getId(): interger&lt;br&gt;&lt;br&gt;+ getName(): String&lt;br&gt;&lt;br&gt;+ getCode(): interger&lt;br&gt;&lt;br&gt;+ getEmail(): String&lt;br&gt;&lt;br&gt;+ getPhoneNumber(): String&lt;br&gt;&lt;br&gt;+ getAddress(): String&lt;br&gt;&lt;br&gt;+ getDateOfBirth(): date&lt;br&gt;&lt;br&gt;+ getGender(): interger&lt;br&gt;&lt;br&gt;+ getFlag(): interger&lt;br&gt;&lt;br&gt;+ getIdAccount(): interger&lt;br&gt;&lt;br&gt;+ getIdTeam(): interger&lt;br&gt;&lt;br&gt;+ getIdClass(): interger&lt;br&gt;&lt;br&gt;+ setId(): void&lt;br&gt;&lt;br style=&quot;border-color: var(--border-color);&quot;&gt;+ setName(): void&lt;br&gt;&lt;br style=&quot;border-color: var(--border-color);&quot;&gt;+ setCode(): void&lt;br&gt;&lt;br style=&quot;border-color: var(--border-color);&quot;&gt;+ setEmail(): void&lt;br&gt;&lt;br style=&quot;border-color: var(--border-color);&quot;&gt;+ setPhoneNumber(): void&lt;br&gt;&lt;br style=&quot;border-color: var(--border-color);&quot;&gt;+ setAddress(): void&lt;br&gt;&lt;br style=&quot;border-color: var(--border-color);&quot;&gt;+ setDateOfBirth(): void&lt;br&gt;&lt;br style=&quot;border-color: var(--border-color);&quot;&gt;+ setGender(): void&lt;br&gt;&lt;br&gt;+ setFlag(): void&lt;br style=&quot;border-color: var(--border-color);&quot;&gt;&lt;br style=&quot;border-color: var(--border-color);&quot;&gt;+ setIdAccount(): void&lt;br style=&quot;border-color: var(--border-color);&quot;&gt;&lt;br style=&quot;border-color: var(--border-color);&quot;&gt;+ setIdTeam(): void&lt;br style=&quot;border-color: var(--border-color);&quot;&gt;&lt;br style=&quot;border-color: var(--border-color);&quot;&gt;+ setIdClass(): void" style="text;strokeColor=none;fillColor=none;align=left;verticalAlign=top;spacingLeft=4;spacingRight=4;overflow=hidden;rotatable=0;points=[[0,0.5],[1,0.5]];portConstraint=eastwest;whiteSpace=wrap;html=1;" vertex="1" parent="V4sBRRPawYf2jss6N-xr-5">
          <mxGeometry y="428" width="190" height="692" as="geometry" />
        </mxCell>
        <mxCell id="VNLyaeQR8Mx1TpH5JarL-2" value="CommentController" style="swimlane;fontStyle=1;align=center;verticalAlign=top;childLayout=stackLayout;horizontal=1;startSize=26;horizontalStack=0;resizeParent=1;resizeParentMax=0;resizeLast=0;collapsible=1;marginBottom=0;whiteSpace=wrap;html=1;" vertex="1" parent="1">
          <mxGeometry x="-50" y="90" width="430" height="300" as="geometry" />
        </mxCell>
        <mxCell id="VNLyaeQR8Mx1TpH5JarL-3" value="- commentService : CommentService" style="text;strokeColor=none;fillColor=none;align=left;verticalAlign=top;spacingLeft=4;spacingRight=4;overflow=hidden;rotatable=0;points=[[0,0.5],[1,0.5]];portConstraint=eastwest;whiteSpace=wrap;html=1;" vertex="1" parent="VNLyaeQR8Mx1TpH5JarL-2">
          <mxGeometry y="26" width="430" height="44" as="geometry" />
        </mxCell>
        <mxCell id="VNLyaeQR8Mx1TpH5JarL-4" value="" style="line;strokeWidth=1;fillColor=none;align=left;verticalAlign=middle;spacingTop=-1;spacingLeft=3;spacingRight=3;rotatable=0;labelPosition=right;points=[];portConstraint=eastwest;strokeColor=inherit;" vertex="1" parent="VNLyaeQR8Mx1TpH5JarL-2">
          <mxGeometry y="70" width="430" height="8" as="geometry" />
        </mxCell>
        <mxCell id="VNLyaeQR8Mx1TpH5JarL-5" value="+ findAllTeacherComment(): List&amp;lt;TeacherComment&amp;gt;&lt;br&gt;&lt;br&gt;+ findAllStudentComment(): List&amp;lt;StudentComment&amp;gt;&lt;br&gt;&lt;br&gt;+createTeacherComment(TeacherComment teacherComment&lt;br&gt;): void&lt;br&gt;&lt;br&gt;+deleteTeacherCommentById(idTeacherComment): void&lt;br&gt;&lt;br&gt;+ createStudentComment(StudentComment studentComment): void&lt;br&gt;&lt;br style=&quot;border-color: var(--border-color);&quot;&gt;+deleteStudentCommentById(idStudentComment): void" style="text;strokeColor=none;fillColor=none;align=left;verticalAlign=top;spacingLeft=4;spacingRight=4;overflow=hidden;rotatable=0;points=[[0,0.5],[1,0.5]];portConstraint=eastwest;whiteSpace=wrap;html=1;" vertex="1" parent="VNLyaeQR8Mx1TpH5JarL-2">
          <mxGeometry y="78" width="430" height="222" as="geometry" />
        </mxCell>
        <mxCell id="V4sBRRPawYf2jss6N-xr-9" value="" style="endArrow=diamondThin;endFill=0;endSize=24;html=1;rounded=0;exitX=-0.008;exitY=0.788;exitDx=0;exitDy=0;exitPerimeter=0;entryX=1.006;entryY=0.83;entryDx=0;entryDy=0;entryPerimeter=0;" edge="1" parent="1" source="V4sBRRPawYf2jss6N-xr-2" target="V4sBRRPawYf2jss6N-xr-6">
          <mxGeometry width="160" relative="1" as="geometry">
            <mxPoint x="-530" y="850" as="sourcePoint" />
            <mxPoint x="-383" y="853" as="targetPoint" />
          </mxGeometry>
        </mxCell>
        <mxCell id="O_B-P7HLGmZ0bJk2k1Pp-1" value="Use" style="endArrow=open;endSize=12;dashed=1;html=1;rounded=0;entryX=1;entryY=0.371;entryDx=0;entryDy=0;entryPerimeter=0;" edge="1" parent="1" target="V4sBRRPawYf2jss6N-xr-2">
          <mxGeometry width="160" relative="1" as="geometry">
            <mxPoint x="-50" y="776" as="sourcePoint" />
            <mxPoint x="-100" y="767" as="targetPoint" />
          </mxGeometry>
        </mxCell>
        <mxCell id="O_B-P7HLGmZ0bJk2k1Pp-2" value="Use" style="endArrow=open;endSize=12;dashed=1;html=1;rounded=0;exitX=-0.001;exitY=0.814;exitDx=0;exitDy=0;exitPerimeter=0;entryX=1.016;entryY=0.818;entryDx=0;entryDy=0;entryPerimeter=0;" edge="1" parent="1" source="VNLyaeQR8Mx1TpH5JarL-9" target="V4sBRRPawYf2jss6N-xr-4">
          <mxGeometry width="160" relative="1" as="geometry">
            <mxPoint x="-200" y="980" as="sourcePoint" />
            <mxPoint x="-260" y="1079" as="targetPoint" />
          </mxGeometry>
        </mxCell>
        <mxCell id="O_B-P7HLGmZ0bJk2k1Pp-3" value="Use" style="endArrow=open;endSize=12;dashed=1;html=1;rounded=0;exitX=0;exitY=0.25;exitDx=0;exitDy=0;entryX=1.024;entryY=0.937;entryDx=0;entryDy=0;entryPerimeter=0;" edge="1" parent="1" source="VNLyaeQR8Mx1TpH5JarL-14" target="V4sBRRPawYf2jss6N-xr-4">
          <mxGeometry width="160" relative="1" as="geometry">
            <mxPoint x="-170" y="1260" as="sourcePoint" />
            <mxPoint x="-90" y="1257" as="targetPoint" />
          </mxGeometry>
        </mxCell>
        <mxCell id="LjxoUFQkhtFaeM3uUEXd-1" value="&amp;lt;&amp;lt;interface&amp;gt;&amp;gt;&lt;br style=&quot;border-color: var(--border-color);&quot;&gt;StudentCommentRepository&amp;lt;StudentComment,Interger&amp;gt;" style="swimlane;fontStyle=1;align=center;verticalAlign=top;childLayout=stackLayout;horizontal=1;startSize=50;horizontalStack=0;resizeParent=1;resizeParentMax=0;resizeLast=0;collapsible=1;marginBottom=0;whiteSpace=wrap;html=1;" vertex="1" parent="1">
          <mxGeometry x="155" y="1290" width="335" height="80" as="geometry" />
        </mxCell>
        <mxCell id="LjxoUFQkhtFaeM3uUEXd-2" value="" style="html=1;verticalAlign=bottom;endArrow=block;curved=0;rounded=0;entryX=0.5;entryY=0;entryDx=0;entryDy=0;exitX=0.5;exitY=1;exitDx=0;exitDy=0;" edge="1" parent="1" source="LjxoUFQkhtFaeM3uUEXd-1" target="VNLyaeQR8Mx1TpH5JarL-18">
          <mxGeometry width="80" relative="1" as="geometry">
            <mxPoint x="360" y="1460" as="sourcePoint" />
            <mxPoint x="530" y="1570" as="targetPoint" />
          </mxGeometry>
        </mxCell>
        <mxCell id="LjxoUFQkhtFaeM3uUEXd-3" value="is" style="text;html=1;align=center;verticalAlign=middle;resizable=0;points=[];autosize=1;strokeColor=none;fillColor=none;" vertex="1" parent="1">
          <mxGeometry x="210" y="1400" width="30" height="30" as="geometry" />
        </mxCell>
        <mxCell id="LjxoUFQkhtFaeM3uUEXd-4" value="" style="endArrow=diamondThin;endFill=1;endSize=24;html=1;rounded=0;exitX=0.5;exitY=0;exitDx=0;exitDy=0;entryX=0.483;entryY=1.019;entryDx=0;entryDy=0;entryPerimeter=0;" edge="1" parent="1" source="LjxoUFQkhtFaeM3uUEXd-1" target="VNLyaeQR8Mx1TpH5JarL-9">
          <mxGeometry width="160" relative="1" as="geometry">
            <mxPoint x="230" y="1210" as="sourcePoint" />
            <mxPoint x="160" y="1140" as="targetPoint" />
          </mxGeometry>
        </mxCell>
        <mxCell id="LjxoUFQkhtFaeM3uUEXd-5" value="owns" style="text;html=1;align=center;verticalAlign=middle;resizable=0;points=[];autosize=1;strokeColor=none;fillColor=none;" vertex="1" parent="1">
          <mxGeometry x="250" y="1210" width="50" height="30" as="geometry" />
        </mxCell>
        <mxCell id="VNLyaeQR8Mx1TpH5JarL-10" value="&amp;lt;&amp;lt;interface&amp;gt;&amp;gt;&lt;br&gt;CommentService" style="swimlane;fontStyle=1;align=center;verticalAlign=top;childLayout=stackLayout;horizontal=1;startSize=40;horizontalStack=0;resizeParent=1;resizeParentMax=0;resizeLast=0;collapsible=1;marginBottom=0;whiteSpace=wrap;html=1;" vertex="1" parent="1">
          <mxGeometry x="-50" y="540" width="430" height="260" as="geometry" />
        </mxCell>
        <mxCell id="-vVJu5Txpd386XEljX21-1" value="+ findAllTeacherComment(): List&amp;lt;TeacherComment&amp;gt;&lt;br&gt;&lt;br&gt;+ findAllStudentComment(): List&amp;lt;StudentComment&amp;gt;&lt;br&gt;&lt;br&gt;+createTeacherComment(TeacherComment teacherComment): void&lt;br&gt;&lt;br&gt;+ deleteTeacherCommentById(idTeacherComment): void&lt;br&gt;&lt;br&gt;+ createStudentComment(StudentComment studentComment): void&lt;br style=&quot;border-color: var(--border-color);&quot;&gt;&lt;br style=&quot;border-color: var(--border-color);&quot;&gt;+deleteStudentCommentById(idStudentComment): void" style="text;strokeColor=none;fillColor=none;align=left;verticalAlign=top;spacingLeft=4;spacingRight=4;overflow=hidden;rotatable=0;points=[[0,0.5],[1,0.5]];portConstraint=eastwest;whiteSpace=wrap;html=1;" vertex="1" parent="VNLyaeQR8Mx1TpH5JarL-10">
          <mxGeometry y="40" width="430" height="220" as="geometry" />
        </mxCell>
        <mxCell id="VNLyaeQR8Mx1TpH5JarL-38" value="" style="endArrow=diamondThin;endFill=1;endSize=24;html=1;rounded=0;exitX=0.5;exitY=0;exitDx=0;exitDy=0;entryX=0.495;entryY=0.992;entryDx=0;entryDy=0;entryPerimeter=0;" edge="1" parent="1" source="VNLyaeQR8Mx1TpH5JarL-10" target="VNLyaeQR8Mx1TpH5JarL-5">
          <mxGeometry width="160" relative="1" as="geometry">
            <mxPoint x="455" y="140" as="sourcePoint" />
            <mxPoint x="615" y="140" as="targetPoint" />
          </mxGeometry>
        </mxCell>
        <mxCell id="KipbLf2Q7A4qeKrOgxOK-1" value="Use" style="endArrow=open;endSize=12;dashed=1;html=1;rounded=0;entryX=0.5;entryY=0;entryDx=0;entryDy=0;exitX=-0.003;exitY=0.389;exitDx=0;exitDy=0;exitPerimeter=0;" edge="1" parent="1" source="VNLyaeQR8Mx1TpH5JarL-5" target="V4sBRRPawYf2jss6N-xr-1">
          <mxGeometry x="0.4011" width="160" relative="1" as="geometry">
            <mxPoint x="-290" y="400" as="sourcePoint" />
            <mxPoint x="-500" y="400" as="targetPoint" />
            <Array as="points">
              <mxPoint x="-340" y="254" />
            </Array>
            <mxPoint y="1" as="offset" />
          </mxGeometry>
        </mxCell>
        <mxCell id="KipbLf2Q7A4qeKrOgxOK-2" value="Use" style="endArrow=open;endSize=12;dashed=1;html=1;rounded=0;entryX=0.5;entryY=0;entryDx=0;entryDy=0;exitX=1.003;exitY=0.409;exitDx=0;exitDy=0;exitPerimeter=0;" edge="1" parent="1" source="VNLyaeQR8Mx1TpH5JarL-5" target="VNLyaeQR8Mx1TpH5JarL-26">
          <mxGeometry width="160" relative="1" as="geometry">
            <mxPoint x="560" y="440" as="sourcePoint" />
            <mxPoint x="350" y="440" as="targetPoint" />
            <Array as="points">
              <mxPoint x="640" y="259" />
            </Array>
          </mxGeometry>
        </mxCell>
      </root>
    </mxGraphModel>
  </diagram>
  <diagram id="RrktxXFC0StF4WS5QGr5" name="Sequence-diagram">
    <mxGraphModel grid="1" page="1" gridSize="10" guides="1" tooltips="1" connect="1" arrows="1" fold="1" pageScale="1" pageWidth="827" pageHeight="1169" math="0" shadow="0">
      <root>
        <mxCell id="0" />
        <mxCell id="1" parent="0" />
        <mxCell id="afiwP_N4-zXAn49uBa6o-3" value="" style="rounded=0;whiteSpace=wrap;html=1;" vertex="1" parent="1">
          <mxGeometry x="-60" y="30" width="1030" height="740" as="geometry" />
        </mxCell>
        <mxCell id="afiwP_N4-zXAn49uBa6o-1" value="" style="rounded=0;whiteSpace=wrap;html=1;" vertex="1" parent="1">
          <mxGeometry x="130" y="1075" width="1110" height="775" as="geometry" />
        </mxCell>
        <mxCell id="mzsFwLpdt6nKTBe6_MSB-1" value="View" style="shape=umlLifeline;perimeter=lifelinePerimeter;container=1;collapsible=0;recursiveResize=0;rounded=0;shadow=0;strokeWidth=1;" vertex="1" parent="1">
          <mxGeometry x="140" y="85" width="100" height="660" as="geometry" />
        </mxCell>
        <mxCell id="mzsFwLpdt6nKTBe6_MSB-13" value="" style="html=1;points=[];perimeter=orthogonalPerimeter;" vertex="1" parent="mzsFwLpdt6nKTBe6_MSB-1">
          <mxGeometry x="45" y="75" width="10" height="475" as="geometry" />
        </mxCell>
        <mxCell id="mzsFwLpdt6nKTBe6_MSB-2" value=":CommentController" style="shape=umlLifeline;perimeter=lifelinePerimeter;container=1;collapsible=0;recursiveResize=0;rounded=0;shadow=0;strokeWidth=1;" vertex="1" parent="1">
          <mxGeometry x="280" y="90" width="160" height="660" as="geometry" />
        </mxCell>
        <mxCell id="EazYHQ836fQ4923_IRUx-4" value="" style="html=1;points=[];perimeter=orthogonalPerimeter;" vertex="1" parent="mzsFwLpdt6nKTBe6_MSB-2">
          <mxGeometry x="70" y="180" width="10" height="330" as="geometry" />
        </mxCell>
        <mxCell id="mzsFwLpdt6nKTBe6_MSB-3" value=":CommentService" style="shape=umlLifeline;perimeter=lifelinePerimeter;container=1;collapsible=0;recursiveResize=0;rounded=0;shadow=0;strokeWidth=1;" vertex="1" parent="1">
          <mxGeometry x="450" y="90" width="150" height="660" as="geometry" />
        </mxCell>
        <mxCell id="bzP_8oCfrXcrsnAPyRPC-1" value="" style="html=1;points=[];perimeter=orthogonalPerimeter;" vertex="1" parent="mzsFwLpdt6nKTBe6_MSB-3">
          <mxGeometry x="70" y="180" width="10" height="330" as="geometry" />
        </mxCell>
        <mxCell id="zY2EUPXgLzYKBwbUbdFg-7" value="11.Return result" style="html=1;verticalAlign=bottom;endArrow=open;dashed=1;endSize=8;exitX=-0.082;exitY=0.569;exitDx=0;exitDy=0;exitPerimeter=0;entryX=1.044;entryY=0.822;entryDx=0;entryDy=0;entryPerimeter=0;" edge="1" parent="mzsFwLpdt6nKTBe6_MSB-3" target="EazYHQ836fQ4923_IRUx-4">
          <mxGeometry relative="1" as="geometry">
            <mxPoint x="68" y="450" as="sourcePoint" />
            <mxPoint x="-90" y="451" as="targetPoint" />
          </mxGeometry>
        </mxCell>
        <mxCell id="mzsFwLpdt6nKTBe6_MSB-4" value=":TeacherCommentRepository" style="shape=umlLifeline;perimeter=lifelinePerimeter;container=1;collapsible=0;recursiveResize=0;rounded=0;shadow=0;strokeWidth=1;" vertex="1" parent="1">
          <mxGeometry x="630" y="90" width="160" height="660" as="geometry" />
        </mxCell>
        <mxCell id="EazYHQ836fQ4923_IRUx-5" value="" style="html=1;points=[];perimeter=orthogonalPerimeter;" vertex="1" parent="mzsFwLpdt6nKTBe6_MSB-4">
          <mxGeometry x="75" y="240" width="10" height="210" as="geometry" />
        </mxCell>
        <mxCell id="zY2EUPXgLzYKBwbUbdFg-4" value="8.executeUpdate()" style="html=1;verticalAlign=bottom;endArrow=block;entryX=0.45;entryY=0.493;entryDx=0;entryDy=0;entryPerimeter=0;exitX=1.236;exitY=0.285;exitDx=0;exitDy=0;exitPerimeter=0;" edge="1" parent="mzsFwLpdt6nKTBe6_MSB-4" target="mzsFwLpdt6nKTBe6_MSB-5">
          <mxGeometry width="80" relative="1" as="geometry">
            <mxPoint x="85" y="320" as="sourcePoint" />
            <mxPoint x="235" y="320" as="targetPoint" />
          </mxGeometry>
        </mxCell>
        <mxCell id="zY2EUPXgLzYKBwbUbdFg-6" value="10.Return result" style="html=1;verticalAlign=bottom;endArrow=open;dashed=1;endSize=8;exitX=0.471;exitY=0.635;exitDx=0;exitDy=0;exitPerimeter=0;entryX=0.536;entryY=0.58;entryDx=0;entryDy=0;entryPerimeter=0;" edge="1" parent="mzsFwLpdt6nKTBe6_MSB-4" source="mzsFwLpdt6nKTBe6_MSB-4">
          <mxGeometry relative="1" as="geometry">
            <mxPoint x="58" y="420" as="sourcePoint" />
            <mxPoint x="-100" y="421" as="targetPoint" />
          </mxGeometry>
        </mxCell>
        <mxCell id="mzsFwLpdt6nKTBe6_MSB-5" value="Database" style="shape=umlLifeline;perimeter=lifelinePerimeter;container=1;collapsible=0;recursiveResize=0;rounded=0;shadow=0;strokeWidth=1;" vertex="1" parent="1">
          <mxGeometry x="830" y="90" width="100" height="650" as="geometry" />
        </mxCell>
        <mxCell id="bzP_8oCfrXcrsnAPyRPC-2" value="" style="html=1;points=[];perimeter=orthogonalPerimeter;" vertex="1" parent="mzsFwLpdt6nKTBe6_MSB-5">
          <mxGeometry x="45" y="290" width="10" height="120" as="geometry" />
        </mxCell>
        <mxCell id="mzsFwLpdt6nKTBe6_MSB-11" value="1.Select &quot;Thắc mắc của sinh viên&quot;" style="html=1;verticalAlign=bottom;endArrow=block;entryX=0.043;entryY=0.034;entryDx=0;entryDy=0;entryPerimeter=0;" edge="1" parent="1" source="EazYHQ836fQ4923_IRUx-2" target="mzsFwLpdt6nKTBe6_MSB-13">
          <mxGeometry x="-0.0305" y="8" width="80" relative="1" as="geometry">
            <mxPoint x="60" y="180" as="sourcePoint" />
            <mxPoint x="180" y="180" as="targetPoint" />
            <mxPoint as="offset" />
          </mxGeometry>
        </mxCell>
        <mxCell id="mzsFwLpdt6nKTBe6_MSB-12" value="3.Click button &quot;Hủy&quot;" style="html=1;verticalAlign=bottom;endArrow=open;dashed=1;endSize=8;" edge="1" parent="1" target="EazYHQ836fQ4923_IRUx-2">
          <mxGeometry relative="1" as="geometry">
            <mxPoint x="180" y="240" as="sourcePoint" />
            <mxPoint x="50" y="240" as="targetPoint" />
          </mxGeometry>
        </mxCell>
        <mxCell id="EazYHQ836fQ4923_IRUx-2" value="" style="shape=umlLifeline;perimeter=lifelinePerimeter;whiteSpace=wrap;html=1;container=1;dropTarget=0;collapsible=0;recursiveResize=0;outlineConnect=0;portConstraint=eastwest;newEdgeStyle={&quot;curved&quot;:0,&quot;rounded&quot;:0};participant=umlActor;" vertex="1" parent="1">
          <mxGeometry x="-10" y="70" width="20" height="670" as="geometry" />
        </mxCell>
        <mxCell id="EazYHQ836fQ4923_IRUx-3" value="Teacher" style="text;html=1;align=center;verticalAlign=middle;resizable=0;points=[];autosize=1;strokeColor=none;fillColor=none;" vertex="1" parent="1">
          <mxGeometry x="-35" y="110" width="70" height="30" as="geometry" />
        </mxCell>
        <mxCell id="9QlYaBxDJWvK4h9TnCgO-1" value="2.input comment/reply" style="html=1;verticalAlign=bottom;endArrow=block;entryX=-0.073;entryY=0.092;entryDx=0;entryDy=0;entryPerimeter=0;" edge="1" parent="1" source="EazYHQ836fQ4923_IRUx-2" target="mzsFwLpdt6nKTBe6_MSB-13">
          <mxGeometry width="80" relative="1" as="geometry">
            <mxPoint x="60" y="210" as="sourcePoint" />
            <mxPoint x="185" y="208" as="targetPoint" />
          </mxGeometry>
        </mxCell>
        <mxCell id="9QlYaBxDJWvK4h9TnCgO-2" value="4.Click button &quot;Đăng&quot;&amp;nbsp;" style="html=1;verticalAlign=bottom;endArrow=block;entryX=-0.073;entryY=0.206;entryDx=0;entryDy=0;entryPerimeter=0;" edge="1" parent="1" source="EazYHQ836fQ4923_IRUx-2">
          <mxGeometry width="80" relative="1" as="geometry">
            <mxPoint x="8.681818181818244" y="270" as="sourcePoint" />
            <mxPoint x="184.26999999999998" y="270" as="targetPoint" />
          </mxGeometry>
        </mxCell>
        <mxCell id="9QlYaBxDJWvK4h9TnCgO-3" value="5.CreateTeacherComment()" style="html=1;verticalAlign=bottom;endArrow=block;exitX=0.57;exitY=0.329;exitDx=0;exitDy=0;exitPerimeter=0;entryX=0.186;entryY=0.09;entryDx=0;entryDy=0;entryPerimeter=0;" edge="1" parent="1" source="mzsFwLpdt6nKTBe6_MSB-1" target="EazYHQ836fQ4923_IRUx-4">
          <mxGeometry width="80" relative="1" as="geometry">
            <mxPoint x="270" y="300" as="sourcePoint" />
            <mxPoint x="360" y="346" as="targetPoint" />
          </mxGeometry>
        </mxCell>
        <mxCell id="zY2EUPXgLzYKBwbUbdFg-1" value="6.CreateTeacherComment()" style="html=1;verticalAlign=bottom;endArrow=block;entryX=-0.218;entryY=0.19;entryDx=0;entryDy=0;entryPerimeter=0;exitX=1.236;exitY=0.183;exitDx=0;exitDy=0;exitPerimeter=0;" edge="1" parent="1" source="EazYHQ836fQ4923_IRUx-4" target="bzP_8oCfrXcrsnAPyRPC-1">
          <mxGeometry width="80" relative="1" as="geometry">
            <mxPoint x="410" y="330" as="sourcePoint" />
            <mxPoint x="584" y="330" as="targetPoint" />
          </mxGeometry>
        </mxCell>
        <mxCell id="zY2EUPXgLzYKBwbUbdFg-3" value="7.CreateTeacherComment()" style="html=1;verticalAlign=bottom;endArrow=block;entryX=0.481;entryY=0.422;entryDx=0;entryDy=0;entryPerimeter=0;exitX=1.317;exitY=0.303;exitDx=0;exitDy=0;exitPerimeter=0;" edge="1" parent="1" source="bzP_8oCfrXcrsnAPyRPC-1" target="mzsFwLpdt6nKTBe6_MSB-4">
          <mxGeometry width="80" relative="1" as="geometry">
            <mxPoint x="540" y="370" as="sourcePoint" />
            <mxPoint x="690" y="370" as="targetPoint" />
          </mxGeometry>
        </mxCell>
        <mxCell id="zY2EUPXgLzYKBwbUbdFg-5" value="9.Return result" style="html=1;verticalAlign=bottom;endArrow=open;dashed=1;endSize=8;exitX=-0.082;exitY=0.569;exitDx=0;exitDy=0;exitPerimeter=0;entryX=0.536;entryY=0.543;entryDx=0;entryDy=0;entryPerimeter=0;" edge="1" parent="1" source="bzP_8oCfrXcrsnAPyRPC-2" target="mzsFwLpdt6nKTBe6_MSB-4">
          <mxGeometry relative="1" as="geometry">
            <mxPoint x="780" y="470" as="sourcePoint" />
            <mxPoint x="609" y="470" as="targetPoint" />
          </mxGeometry>
        </mxCell>
        <mxCell id="zY2EUPXgLzYKBwbUbdFg-9" value="13.Display new comment" style="html=1;verticalAlign=bottom;endArrow=open;dashed=1;endSize=8;exitX=-0.011;exitY=0.947;exitDx=0;exitDy=0;exitPerimeter=0;" edge="1" parent="1" source="mzsFwLpdt6nKTBe6_MSB-13" target="EazYHQ836fQ4923_IRUx-2">
          <mxGeometry relative="1" as="geometry">
            <mxPoint x="180" y="600" as="sourcePoint" />
            <mxPoint x="-88" y="601" as="targetPoint" />
          </mxGeometry>
        </mxCell>
        <mxCell id="zY2EUPXgLzYKBwbUbdFg-8" value="12.Return result" style="html=1;verticalAlign=bottom;endArrow=open;dashed=1;endSize=8;exitX=-0.057;exitY=0.918;exitDx=0;exitDy=0;exitPerimeter=0;entryX=0.546;entryY=0.742;entryDx=0;entryDy=0;entryPerimeter=0;" edge="1" parent="1" source="EazYHQ836fQ4923_IRUx-4" target="mzsFwLpdt6nKTBe6_MSB-1">
          <mxGeometry relative="1" as="geometry">
            <mxPoint x="353" y="570" as="sourcePoint" />
            <mxPoint x="195" y="571" as="targetPoint" />
          </mxGeometry>
        </mxCell>
        <mxCell id="zY2EUPXgLzYKBwbUbdFg-10" value="View" style="shape=umlLifeline;perimeter=lifelinePerimeter;container=1;collapsible=0;recursiveResize=0;rounded=0;shadow=0;strokeWidth=1;" vertex="1" parent="1">
          <mxGeometry x="355" y="1135" width="100" height="660" as="geometry" />
        </mxCell>
        <mxCell id="zY2EUPXgLzYKBwbUbdFg-11" value="" style="html=1;points=[];perimeter=orthogonalPerimeter;" vertex="1" parent="zY2EUPXgLzYKBwbUbdFg-10">
          <mxGeometry x="45" y="75" width="10" height="475" as="geometry" />
        </mxCell>
        <mxCell id="zY2EUPXgLzYKBwbUbdFg-12" value=":CommentController" style="shape=umlLifeline;perimeter=lifelinePerimeter;container=1;collapsible=0;recursiveResize=0;rounded=0;shadow=0;strokeWidth=1;" vertex="1" parent="1">
          <mxGeometry x="505" y="1140" width="150" height="660" as="geometry" />
        </mxCell>
        <mxCell id="zY2EUPXgLzYKBwbUbdFg-13" value="" style="html=1;points=[];perimeter=orthogonalPerimeter;" vertex="1" parent="zY2EUPXgLzYKBwbUbdFg-12">
          <mxGeometry x="70" y="180" width="10" height="330" as="geometry" />
        </mxCell>
        <mxCell id="zY2EUPXgLzYKBwbUbdFg-14" value=":CommentService" style="shape=umlLifeline;perimeter=lifelinePerimeter;container=1;collapsible=0;recursiveResize=0;rounded=0;shadow=0;strokeWidth=1;" vertex="1" parent="1">
          <mxGeometry x="665" y="1140" width="150" height="660" as="geometry" />
        </mxCell>
        <mxCell id="zY2EUPXgLzYKBwbUbdFg-15" value="" style="html=1;points=[];perimeter=orthogonalPerimeter;" vertex="1" parent="zY2EUPXgLzYKBwbUbdFg-14">
          <mxGeometry x="70" y="180" width="10" height="330" as="geometry" />
        </mxCell>
        <mxCell id="zY2EUPXgLzYKBwbUbdFg-16" value="11.Return result" style="html=1;verticalAlign=bottom;endArrow=open;dashed=1;endSize=8;exitX=-0.082;exitY=0.569;exitDx=0;exitDy=0;exitPerimeter=0;entryX=0.536;entryY=0.58;entryDx=0;entryDy=0;entryPerimeter=0;" edge="1" parent="zY2EUPXgLzYKBwbUbdFg-14">
          <mxGeometry relative="1" as="geometry">
            <mxPoint x="68" y="450" as="sourcePoint" />
            <mxPoint x="-90" y="451" as="targetPoint" />
          </mxGeometry>
        </mxCell>
        <mxCell id="zY2EUPXgLzYKBwbUbdFg-17" value=":StudentCommentRepository" style="shape=umlLifeline;perimeter=lifelinePerimeter;container=1;collapsible=0;recursiveResize=0;rounded=0;shadow=0;strokeWidth=1;" vertex="1" parent="1">
          <mxGeometry x="845" y="1140" width="160" height="660" as="geometry" />
        </mxCell>
        <mxCell id="zY2EUPXgLzYKBwbUbdFg-18" value="" style="html=1;points=[];perimeter=orthogonalPerimeter;" vertex="1" parent="zY2EUPXgLzYKBwbUbdFg-17">
          <mxGeometry x="75" y="240" width="10" height="210" as="geometry" />
        </mxCell>
        <mxCell id="zY2EUPXgLzYKBwbUbdFg-19" value="8.executeUpdate()" style="html=1;verticalAlign=bottom;endArrow=block;entryX=0.45;entryY=0.493;entryDx=0;entryDy=0;entryPerimeter=0;exitX=1.236;exitY=0.285;exitDx=0;exitDy=0;exitPerimeter=0;" edge="1" parent="zY2EUPXgLzYKBwbUbdFg-17" target="zY2EUPXgLzYKBwbUbdFg-21">
          <mxGeometry width="80" relative="1" as="geometry">
            <mxPoint x="85" y="320" as="sourcePoint" />
            <mxPoint x="235" y="320" as="targetPoint" />
          </mxGeometry>
        </mxCell>
        <mxCell id="zY2EUPXgLzYKBwbUbdFg-20" value="10.Return result" style="html=1;verticalAlign=bottom;endArrow=open;dashed=1;endSize=8;exitX=0.471;exitY=0.635;exitDx=0;exitDy=0;exitPerimeter=0;entryX=0.536;entryY=0.58;entryDx=0;entryDy=0;entryPerimeter=0;" edge="1" parent="zY2EUPXgLzYKBwbUbdFg-17" source="zY2EUPXgLzYKBwbUbdFg-17">
          <mxGeometry relative="1" as="geometry">
            <mxPoint x="58" y="420" as="sourcePoint" />
            <mxPoint x="-100" y="421" as="targetPoint" />
          </mxGeometry>
        </mxCell>
        <mxCell id="zY2EUPXgLzYKBwbUbdFg-21" value="Database" style="shape=umlLifeline;perimeter=lifelinePerimeter;container=1;collapsible=0;recursiveResize=0;rounded=0;shadow=0;strokeWidth=1;" vertex="1" parent="1">
          <mxGeometry x="1045" y="1140" width="100" height="650" as="geometry" />
        </mxCell>
        <mxCell id="zY2EUPXgLzYKBwbUbdFg-22" value="" style="html=1;points=[];perimeter=orthogonalPerimeter;" vertex="1" parent="zY2EUPXgLzYKBwbUbdFg-21">
          <mxGeometry x="45" y="290" width="10" height="120" as="geometry" />
        </mxCell>
        <mxCell id="zY2EUPXgLzYKBwbUbdFg-23" value="1.Select &quot;Thắc mắc của sinh viên&quot;" style="html=1;verticalAlign=bottom;endArrow=block;entryX=0.043;entryY=0.034;entryDx=0;entryDy=0;entryPerimeter=0;" edge="1" parent="1" source="zY2EUPXgLzYKBwbUbdFg-25" target="zY2EUPXgLzYKBwbUbdFg-11">
          <mxGeometry x="-0.0305" y="8" width="80" relative="1" as="geometry">
            <mxPoint x="275" y="1230" as="sourcePoint" />
            <mxPoint x="395" y="1230" as="targetPoint" />
            <mxPoint as="offset" />
          </mxGeometry>
        </mxCell>
        <mxCell id="zY2EUPXgLzYKBwbUbdFg-24" value="3.Click button &quot;Hủy&quot;" style="html=1;verticalAlign=bottom;endArrow=open;dashed=1;endSize=8;" edge="1" parent="1" target="zY2EUPXgLzYKBwbUbdFg-25">
          <mxGeometry relative="1" as="geometry">
            <mxPoint x="395" y="1290" as="sourcePoint" />
            <mxPoint x="265" y="1290" as="targetPoint" />
          </mxGeometry>
        </mxCell>
        <mxCell id="zY2EUPXgLzYKBwbUbdFg-25" value="" style="shape=umlLifeline;perimeter=lifelinePerimeter;whiteSpace=wrap;html=1;container=1;dropTarget=0;collapsible=0;recursiveResize=0;outlineConnect=0;portConstraint=eastwest;newEdgeStyle={&quot;curved&quot;:0,&quot;rounded&quot;:0};participant=umlActor;" vertex="1" parent="1">
          <mxGeometry x="205" y="1120" width="20" height="670" as="geometry" />
        </mxCell>
        <mxCell id="zY2EUPXgLzYKBwbUbdFg-26" value="Student" style="text;html=1;align=center;verticalAlign=middle;resizable=0;points=[];autosize=1;strokeColor=none;fillColor=none;" vertex="1" parent="1">
          <mxGeometry x="185" y="1160" width="60" height="30" as="geometry" />
        </mxCell>
        <mxCell id="zY2EUPXgLzYKBwbUbdFg-27" value="2.input comment/reply" style="html=1;verticalAlign=bottom;endArrow=block;entryX=-0.073;entryY=0.092;entryDx=0;entryDy=0;entryPerimeter=0;" edge="1" parent="1" source="zY2EUPXgLzYKBwbUbdFg-25" target="zY2EUPXgLzYKBwbUbdFg-11">
          <mxGeometry width="80" relative="1" as="geometry">
            <mxPoint x="275" y="1260" as="sourcePoint" />
            <mxPoint x="400" y="1258" as="targetPoint" />
          </mxGeometry>
        </mxCell>
        <mxCell id="zY2EUPXgLzYKBwbUbdFg-28" value="4.Click button &quot;Đăng&quot;&amp;nbsp;" style="html=1;verticalAlign=bottom;endArrow=block;entryX=-0.073;entryY=0.206;entryDx=0;entryDy=0;entryPerimeter=0;" edge="1" parent="1" source="zY2EUPXgLzYKBwbUbdFg-25">
          <mxGeometry width="80" relative="1" as="geometry">
            <mxPoint x="223.68181818181824" y="1320" as="sourcePoint" />
            <mxPoint x="399.27" y="1320" as="targetPoint" />
          </mxGeometry>
        </mxCell>
        <mxCell id="zY2EUPXgLzYKBwbUbdFg-29" value="5.CreateStudentComment()" style="html=1;verticalAlign=bottom;endArrow=block;exitX=0.57;exitY=0.329;exitDx=0;exitDy=0;exitPerimeter=0;entryX=0.186;entryY=0.09;entryDx=0;entryDy=0;entryPerimeter=0;" edge="1" parent="1" source="zY2EUPXgLzYKBwbUbdFg-10" target="zY2EUPXgLzYKBwbUbdFg-13">
          <mxGeometry width="80" relative="1" as="geometry">
            <mxPoint x="485" y="1350" as="sourcePoint" />
            <mxPoint x="575" y="1396" as="targetPoint" />
          </mxGeometry>
        </mxCell>
        <mxCell id="zY2EUPXgLzYKBwbUbdFg-30" value="6.CreateStudentComment()" style="html=1;verticalAlign=bottom;endArrow=block;entryX=-0.218;entryY=0.19;entryDx=0;entryDy=0;entryPerimeter=0;exitX=1.236;exitY=0.183;exitDx=0;exitDy=0;exitPerimeter=0;" edge="1" parent="1" source="zY2EUPXgLzYKBwbUbdFg-13" target="zY2EUPXgLzYKBwbUbdFg-15">
          <mxGeometry width="80" relative="1" as="geometry">
            <mxPoint x="625" y="1380" as="sourcePoint" />
            <mxPoint x="799" y="1380" as="targetPoint" />
          </mxGeometry>
        </mxCell>
        <mxCell id="zY2EUPXgLzYKBwbUbdFg-31" value="7.CreateStudentComment()" style="html=1;verticalAlign=bottom;endArrow=block;entryX=0.481;entryY=0.422;entryDx=0;entryDy=0;entryPerimeter=0;exitX=1.317;exitY=0.303;exitDx=0;exitDy=0;exitPerimeter=0;" edge="1" parent="1" source="zY2EUPXgLzYKBwbUbdFg-15" target="zY2EUPXgLzYKBwbUbdFg-17">
          <mxGeometry width="80" relative="1" as="geometry">
            <mxPoint x="755" y="1420" as="sourcePoint" />
            <mxPoint x="905" y="1420" as="targetPoint" />
          </mxGeometry>
        </mxCell>
        <mxCell id="zY2EUPXgLzYKBwbUbdFg-32" value="9.Return result" style="html=1;verticalAlign=bottom;endArrow=open;dashed=1;endSize=8;exitX=-0.082;exitY=0.569;exitDx=0;exitDy=0;exitPerimeter=0;entryX=0.536;entryY=0.543;entryDx=0;entryDy=0;entryPerimeter=0;" edge="1" parent="1" source="zY2EUPXgLzYKBwbUbdFg-22" target="zY2EUPXgLzYKBwbUbdFg-17">
          <mxGeometry relative="1" as="geometry">
            <mxPoint x="995" y="1520" as="sourcePoint" />
            <mxPoint x="824" y="1520" as="targetPoint" />
          </mxGeometry>
        </mxCell>
        <mxCell id="zY2EUPXgLzYKBwbUbdFg-33" value="13.Display new comment" style="html=1;verticalAlign=bottom;endArrow=open;dashed=1;endSize=8;exitX=-0.011;exitY=0.947;exitDx=0;exitDy=0;exitPerimeter=0;" edge="1" parent="1" source="zY2EUPXgLzYKBwbUbdFg-11" target="zY2EUPXgLzYKBwbUbdFg-25">
          <mxGeometry relative="1" as="geometry">
            <mxPoint x="395" y="1650" as="sourcePoint" />
            <mxPoint x="127" y="1651" as="targetPoint" />
          </mxGeometry>
        </mxCell>
        <mxCell id="zY2EUPXgLzYKBwbUbdFg-34" value="12.Return result" style="html=1;verticalAlign=bottom;endArrow=open;dashed=1;endSize=8;exitX=-0.057;exitY=0.918;exitDx=0;exitDy=0;exitPerimeter=0;entryX=0.546;entryY=0.742;entryDx=0;entryDy=0;entryPerimeter=0;" edge="1" parent="1" source="zY2EUPXgLzYKBwbUbdFg-13" target="zY2EUPXgLzYKBwbUbdFg-10">
          <mxGeometry relative="1" as="geometry">
            <mxPoint x="568" y="1620" as="sourcePoint" />
            <mxPoint x="410" y="1621" as="targetPoint" />
          </mxGeometry>
        </mxCell>
      </root>
    </mxGraphModel>
  </diagram>
</mxfile>
